name rise49.5252peak65.1548fall88.8305.mot
datacolumns 19
datarows 55
range 18.746591 18.836592
endheader
time	ground_force1_vx	ground_force1_vy	ground_force1_vz	ground_force1_px	ground_force1_py	ground_force1_pz	ground_force2_vx	ground_force2_vy	ground_force2_vz	ground_force2_px	ground_force2_py	ground_force2_pz	ground_torque1_x	ground_torque1_y	ground_torque1_z	ground_torque2_x	ground_torque2_y	ground_torque2_z	
18.746591	0.000000	0.000000	0.000000	0.000000	0.000000	0.000000	4.221018	678.534460	-41.059536	0.266384	0.000000	-0.083647	0.000000	0.000000	0.000000	0.000000	-21.558768	0.000000	
18.748257	0.000000	0.000000	0.000000	0.000000	0.000000	0.000000	3.880363	679.057394	-41.061105	0.265722	0.000000	-0.083653	0.000000	0.000000	0.000000	0.000000	-21.557753	0.000000	
18.749921	0.000000	0.000000	0.000000	0.000000	0.000000	0.000000	3.540275	679.642982	-41.065574	0.265065	0.000000	-0.083658	0.000000	0.000000	0.000000	0.000000	-21.559107	0.000000	
18.751593	0.000000	0.000000	0.000000	0.000000	0.000000	0.000000	3.200258	680.290987	-41.072987	0.264413	0.000000	-0.083664	0.000000	0.000000	0.000000	0.000000	-21.562849	0.000000	
18.753261	0.000000	0.000000	0.000000	0.000000	0.000000	0.000000	2.859825	681.001169	-41.083406	0.263764	0.000000	-0.083669	0.000000	0.000000	0.000000	0.000000	-21.569005	0.000000	
18.754920	0.000000	0.000000	0.000000	0.000000	0.000000	0.000000	2.518498	681.773279	-41.096914	0.263117	0.000000	-0.083674	0.000000	0.000000	0.000000	0.000000	-21.577608	0.000000	
18.756594	0.000000	0.000000	0.000000	0.000000	0.000000	0.000000	2.175810	682.607055	-41.113616	0.262470	0.000000	-0.083679	0.000000	0.000000	0.000000	0.000000	-21.588698	0.000000	
18.758255	0.000000	0.000000	0.000000	0.000000	0.000000	0.000000	1.831303	683.502225	-41.133632	0.261823	0.000000	-0.083684	0.000000	0.000000	0.000000	0.000000	-21.602320	0.000000	
18.759922	0.000000	0.000000	0.000000	0.000000	0.000000	0.000000	1.484537	684.458499	-41.157103	0.261175	0.000000	-0.083689	0.000000	0.000000	0.000000	0.000000	-21.618523	0.000000	
18.761594	0.000000	0.000000	0.000000	0.000000	0.000000	0.000000	1.135083	685.475570	-41.184184	0.260524	0.000000	-0.083694	0.000000	0.000000	0.000000	0.000000	-21.637362	0.000000	
18.763256	0.000000	0.000000	0.000000	0.000000	0.000000	0.000000	0.782527	686.553108	-41.215048	0.259869	0.000000	-0.083700	0.000000	0.000000	0.000000	0.000000	-21.658897	0.000000	
18.764921	0.000000	0.000000	0.000000	0.000000	0.000000	0.000000	0.426473	687.690760	-41.249882	0.259210	0.000000	-0.083706	0.000000	0.000000	0.000000	0.000000	-21.683190	0.000000	
18.766595	0.000000	0.000000	0.000000	0.000000	0.000000	0.000000	0.066542	688.888146	-41.288887	0.258546	0.000000	-0.083712	0.000000	0.000000	0.000000	0.000000	-21.710308	0.000000	
18.768254	0.000000	0.000000	0.000000	0.000000	0.000000	0.000000	-0.297627	690.144851	-41.332273	0.257876	0.000000	-0.083718	0.000000	0.000000	0.000000	0.000000	-21.740318	0.000000	
18.769920	0.000000	0.000000	0.000000	0.000000	0.000000	0.000000	-0.666376	691.460430	-41.380264	0.257199	0.000000	-0.083725	0.000000	0.000000	0.000000	0.000000	-21.773291	0.000000	
18.771586	0.000000	0.000000	0.000000	0.000000	0.000000	0.000000	-1.040026	692.834396	-41.433090	0.256514	0.000000	-0.083732	0.000000	0.000000	0.000000	0.000000	-21.809298	0.000000	
18.773261	0.000000	0.000000	0.000000	0.000000	0.000000	0.000000	-1.418878	694.266221	-41.490990	0.255821	0.000000	-0.083740	0.000000	0.000000	0.000000	0.000000	-21.848410	0.000000	
18.774925	0.000000	0.000000	0.000000	0.000000	0.000000	0.000000	-1.803211	695.755330	-41.554209	0.255119	0.000000	-0.083748	0.000000	0.000000	0.000000	0.000000	-21.890697	0.000000	
18.776590	0.000000	0.000000	0.000000	0.000000	0.000000	0.000000	-2.193281	697.301100	-41.622993	0.254408	0.000000	-0.083758	0.000000	0.000000	0.000000	0.000000	-21.936227	0.000000	
18.778259	0.000000	0.000000	0.000000	0.000000	0.000000	0.000000	-2.589324	698.902852	-41.697595	0.253688	0.000000	-0.083767	0.000000	0.000000	0.000000	0.000000	-21.985068	0.000000	
18.779925	0.000000	0.000000	0.000000	0.000000	0.000000	0.000000	-2.991549	700.559851	-41.778264	0.252957	0.000000	-0.083778	0.000000	0.000000	0.000000	0.000000	-22.037283	0.000000	
18.781590	0.000000	0.000000	0.000000	0.000000	0.000000	0.000000	-3.400143	702.271300	-41.865250	0.252216	0.000000	-0.083789	0.000000	0.000000	0.000000	0.000000	-22.092932	0.000000	
18.783255	0.000000	0.000000	0.000000	0.000000	0.000000	0.000000	-3.815268	704.036338	-41.958801	0.251464	0.000000	-0.083801	0.000000	0.000000	0.000000	0.000000	-22.152068	0.000000	
18.784919	0.000000	0.000000	0.000000	0.000000	0.000000	0.000000	-4.237061	705.854032	-42.059157	0.250702	0.000000	-0.083814	0.000000	0.000000	0.000000	0.000000	-22.214741	0.000000	
18.786594	0.000000	0.000000	0.000000	0.000000	0.000000	0.000000	-4.665634	707.723380	-42.166556	0.249929	0.000000	-0.083827	0.000000	0.000000	0.000000	0.000000	-22.280994	0.000000	
18.788260	0.000000	0.000000	0.000000	0.000000	0.000000	0.000000	-5.101073	709.643302	-42.281223	0.249145	0.000000	-0.083842	0.000000	0.000000	0.000000	0.000000	-22.350861	0.000000	
18.789923	0.000000	0.000000	0.000000	0.000000	0.000000	0.000000	-5.543439	711.612642	-42.403378	0.248350	0.000000	-0.083857	0.000000	0.000000	0.000000	0.000000	-22.424369	0.000000	
18.791594	0.000000	0.000000	0.000000	0.000000	0.000000	0.000000	-5.992767	713.630159	-42.533226	0.247544	0.000000	-0.083873	0.000000	0.000000	0.000000	0.000000	-22.501539	0.000000	
18.793260	0.000000	0.000000	0.000000	0.000000	0.000000	0.000000	-6.449065	715.694529	-42.670960	0.246727	0.000000	-0.083891	0.000000	0.000000	0.000000	0.000000	-22.582378	0.000000	
18.794920	0.000000	0.000000	0.000000	0.000000	0.000000	0.000000	-6.912316	717.804340	-42.816759	0.245900	0.000000	-0.083909	0.000000	0.000000	0.000000	0.000000	-22.666886	0.000000	
18.796595	0.000000	0.000000	0.000000	0.000000	0.000000	0.000000	-7.382477	719.958091	-42.970784	0.245062	0.000000	-0.083928	0.000000	0.000000	0.000000	0.000000	-22.755053	0.000000	
18.798261	0.000000	0.000000	0.000000	0.000000	0.000000	0.000000	-7.859479	722.154187	-43.133181	0.244214	0.000000	-0.083948	0.000000	0.000000	0.000000	0.000000	-22.846857	0.000000	
18.799924	0.000000	0.000000	0.000000	0.000000	0.000000	0.000000	-8.343225	724.390943	-43.304074	0.243357	0.000000	-0.083968	0.000000	0.000000	0.000000	0.000000	-22.942264	0.000000	
18.801588	0.000000	0.000000	0.000000	0.000000	0.000000	0.000000	-8.833597	726.666577	-43.483569	0.242490	0.000000	-0.083990	0.000000	0.000000	0.000000	0.000000	-23.041230	0.000000	
18.803256	0.000000	0.000000	0.000000	0.000000	0.000000	0.000000	-9.330448	728.979212	-43.671749	0.241615	0.000000	-0.084013	0.000000	0.000000	0.000000	0.000000	-23.143697	0.000000	
18.804923	0.000000	0.000000	0.000000	0.000000	0.000000	0.000000	-9.833607	731.326874	-43.868674	0.240730	0.000000	-0.084036	0.000000	0.000000	0.000000	0.000000	-23.249597	0.000000	
18.806592	0.000000	0.000000	0.000000	0.000000	0.000000	0.000000	-10.342879	733.707493	-44.074381	0.239838	0.000000	-0.084061	0.000000	0.000000	0.000000	0.000000	-23.358847	0.000000	
18.808256	0.000000	0.000000	0.000000	0.000000	0.000000	0.000000	-10.858045	736.118901	-44.288882	0.238938	0.000000	-0.084086	0.000000	0.000000	0.000000	0.000000	-23.471353	0.000000	
18.809928	0.000000	0.000000	0.000000	0.000000	0.000000	0.000000	-11.378863	738.558835	-44.512163	0.238031	0.000000	-0.084112	0.000000	0.000000	0.000000	0.000000	-23.587009	0.000000	
18.811588	0.000000	0.000000	0.000000	0.000000	0.000000	0.000000	-11.905066	741.024935	-44.744184	0.237118	0.000000	-0.084138	0.000000	0.000000	0.000000	0.000000	-23.705693	0.000000	
18.813261	0.000000	0.000000	0.000000	0.000000	0.000000	0.000000	-12.436368	743.514750	-44.984877	0.236199	0.000000	-0.084166	0.000000	0.000000	0.000000	0.000000	-23.827273	0.000000	
18.814920	0.000000	0.000000	0.000000	0.000000	0.000000	0.000000	-12.972457	746.025735	-45.234149	0.235274	0.000000	-0.084194	0.000000	0.000000	0.000000	0.000000	-23.951604	0.000000	
18.816590	0.000000	0.000000	0.000000	0.000000	0.000000	0.000000	-13.513003	748.555254	-45.491877	0.234345	0.000000	-0.084222	0.000000	0.000000	0.000000	0.000000	-24.078528	0.000000	
18.818254	0.000000	0.000000	0.000000	0.000000	0.000000	0.000000	-14.057657	751.100587	-45.757909	0.233412	0.000000	-0.084252	0.000000	0.000000	0.000000	0.000000	-24.207873	0.000000	
18.819926	0.000000	0.000000	0.000000	0.000000	0.000000	0.000000	-14.606048	753.658926	-46.032069	0.232475	0.000000	-0.084281	0.000000	0.000000	0.000000	0.000000	-24.339459	0.000000	
18.821589	0.000000	0.000000	0.000000	0.000000	0.000000	0.000000	-15.157789	756.227387	-46.314148	0.231535	0.000000	-0.084311	0.000000	0.000000	0.000000	0.000000	-24.473089	0.000000	
18.823267	0.000000	0.000000	0.000000	0.000000	0.000000	0.000000	-15.712473	758.803005	-46.603912	0.230593	0.000000	-0.084342	0.000000	0.000000	0.000000	0.000000	-24.608559	0.000000	
18.824927	0.000000	0.000000	0.000000	0.000000	0.000000	0.000000	-16.269680	761.382747	-46.901098	0.229650	0.000000	-0.084373	0.000000	0.000000	0.000000	0.000000	-24.745651	0.000000	
18.826591	0.000000	0.000000	0.000000	0.000000	0.000000	0.000000	-16.828972	763.963510	-47.205417	0.228705	0.000000	-0.084404	0.000000	0.000000	0.000000	0.000000	-24.884138	0.000000	
18.828256	0.000000	0.000000	0.000000	0.000000	0.000000	0.000000	-17.389898	766.542130	-47.516551	0.227761	0.000000	-0.084435	0.000000	0.000000	0.000000	0.000000	-25.023782	0.000000	
18.829920	0.000000	0.000000	0.000000	0.000000	0.000000	0.000000	-17.951997	769.115387	-47.834159	0.226816	0.000000	-0.084467	0.000000	0.000000	0.000000	0.000000	-25.164336	0.000000	
18.831586	0.000000	0.000000	0.000000	0.000000	0.000000	0.000000	-18.514792	771.680009	-48.157871	0.225872	0.000000	-0.084498	0.000000	0.000000	0.000000	0.000000	-25.305544	0.000000	
18.833256	0.000000	0.000000	0.000000	0.000000	0.000000	0.000000	-19.077799	774.232682	-48.487294	0.224930	0.000000	-0.084530	0.000000	0.000000	0.000000	0.000000	-25.447143	0.000000	
18.834923	0.000000	0.000000	0.000000	0.000000	0.000000	0.000000	-19.640525	776.770053	-48.822013	0.223989	0.000000	-0.084561	0.000000	0.000000	0.000000	0.000000	-25.588861	0.000000	
18.836592	0.000000	0.000000	0.000000	0.000000	0.000000	0.000000	-20.202471	779.288738	-49.161587	0.223051	0.000000	-0.084593	0.000000	0.000000	0.000000	0.000000	-25.730420	0.000000	
